<?xml version="1.0" standalone="no"?>
<!DOCTYPE svg PUBLIC "-//W3C//DTD SVG 20010904//EN"
 "http://www.w3.org/TR/2001/REC-SVG-20010904/DTD/svg10.dtd">
<svg version="1.0" xmlns="http://www.w3.org/2000/svg"
 width="1000.000000pt" height="1000.000000pt" viewBox="0 0 1000.000000 1000.000000"
 preserveAspectRatio="xMidYMid meet">
<metadata>
Created by potrace 1.11, written by Peter Selinger 2001-2013
</metadata>
<g transform="translate(0.000000,1000.000000) scale(0.100000,-0.100000)"
fill="#000000" stroke="none">
<path d="M7097 9784 c-1 -1 -51 -5 -112 -9 -60 -4 -123 -9 -140 -11 -16 -2
-58 -6 -93 -9 -34 -3 -75 -7 -90 -9 -15 -2 -47 -7 -72 -11 -25 -4 -58 -9 -75
-12 -16 -2 -39 -6 -50 -8 -223 -32 -537 -105 -834 -192 -47 -14 -89 -26 -95
-28 -6 -1 -18 -5 -26 -8 -8 -3 -73 -24 -145 -47 -117 -38 -449 -157 -500 -180
-11 -5 -87 -36 -170 -70 -300 -123 -725 -321 -733 -342 -2 -4 -8 -8 -14 -8
-15 0 -312 -175 -385 -226 -34 -24 -65 -44 -68 -44 -6 0 -76 -47 -110 -73 -5
-4 -55 -40 -110 -80 -98 -70 -315 -235 -325 -246 -3 -4 -30 -26 -60 -51 -30
-25 -57 -47 -60 -50 -3 -3 -39 -34 -80 -70 -477 -416 -926 -942 -1207 -1415
-59 -99 -213 -396 -213 -410 0 -3 -8 -25 -19 -48 -20 -47 -59 -151 -89 -242
-25 -73 -68 -262 -76 -330 -4 -27 -9 -66 -11 -85 -7 -44 -7 -263 -1 -310 2
-19 7 -62 11 -95 22 -209 86 -438 168 -601 97 -194 260 -377 424 -478 34 -21
73 -55 86 -75 29 -43 193 -211 206 -211 5 0 16 -7 25 -15 21 -22 164 -105 179
-105 7 0 17 -4 22 -8 40 -35 286 -97 435 -108 143 -12 404 -5 430 11 3 2 39 6
79 10 103 9 222 31 266 49 55 24 58 21 29 -31 -14 -27 -42 -77 -62 -113 -20
-36 -72 -126 -115 -200 -44 -74 -85 -144 -91 -155 -6 -12 -55 -90 -109 -175
-263 -415 -479 -687 -702 -885 -72 -64 -283 -186 -425 -245 -75 -32 -231 -82
-236 -77 -2 1 -6 25 -9 52 -14 108 -45 187 -105 268 l-35 48 -1 122 c-2 201
-54 337 -178 462 -160 162 -391 218 -676 162 -39 -8 -121 -37 -165 -60 -267
-134 -420 -436 -411 -807 5 -178 52 -337 143 -485 62 -100 159 -206 239 -261
45 -31 61 -51 94 -116 95 -188 220 -303 440 -405 127 -59 289 -104 440 -121
118 -13 352 -7 466 13 16 3 43 7 59 9 324 50 795 240 1259 507 166 96 167 97
310 187 312 197 600 405 746 538 19 18 46 42 60 54 109 93 403 401 516 540 16
19 31 37 34 40 3 3 23 28 45 55 21 28 42 52 45 55 3 3 49 61 101 130 369 482
733 1069 1018 1640 40 79 78 145 84 146 7 1 54 4 104 8 90 7 120 11 173 21 14
3 39 8 55 11 17 2 38 7 47 10 9 3 25 6 35 8 66 13 342 101 407 130 17 8 60 27
96 42 302 128 675 359 995 613 197 157 251 206 455 411 200 200 230 233 426
473 155 189 354 503 475 746 94 191 202 476 224 592 3 13 7 35 10 49 13 62 16
78 25 126 24 142 32 362 16 494 -37 318 -182 607 -423 841 -48 48 -111 110
-140 140 -76 80 -112 112 -206 183 -203 153 -438 265 -717 341 -76 21 -180 44
-265 59 -16 3 -39 8 -50 10 -11 2 -49 7 -85 11 -36 4 -74 9 -84 11 -19 3 -83
9 -230 20 -69 6 -514 13 -519 8z m521 -953 c24 -12 42 -24 40 -25 -1 -2 -25
-6 -53 -9 -57 -7 -65 -9 -154 -32 -65 -17 -146 -45 -216 -75 -22 -9 -76 -32
-120 -51 -44 -18 -98 -44 -119 -57 -22 -13 -45 -25 -51 -26 -7 -1 -24 -9 -38
-19 -15 -9 -28 -17 -31 -17 -28 0 -508 -308 -546 -350 -3 -4 -23 -19 -45 -35
-37 -27 -189 -153 -259 -215 -123 -108 -335 -332 -520 -550 -53 -63 -187 -248
-271 -375 -174 -264 -311 -506 -490 -864 -110 -219 -136 -274 -232 -486 -25
-55 -63 -138 -84 -184 -22 -46 -39 -90 -39 -97 0 -29 -17 -12 -33 34 -38 105
-134 173 -247 176 -55 1 -76 -4 -131 -31 -76 -38 -157 -114 -209 -198 -148
-237 -344 -428 -582 -569 l-78 -46 -1 63 c-4 173 3 373 16 409 2 7 7 31 10 53
19 130 75 318 162 540 69 178 233 510 314 640 58 92 190 282 230 330 9 11 54
65 99 120 93 112 146 169 306 329 134 135 249 240 379 349 27 23 56 49 65 57
9 8 38 33 65 54 28 22 58 48 68 58 10 10 21 18 25 18 4 0 18 10 32 23 14 12
61 50 105 84 44 35 85 66 90 71 6 4 37 28 70 52 33 25 66 50 73 57 7 7 26 20
42 30 17 9 30 21 30 25 0 4 6 8 14 8 8 0 16 4 18 9 4 11 190 134 308 203 145
85 389 203 547 264 37 14 82 32 98 39 62 27 356 117 455 140 122 29 241 55
265 58 17 3 46 8 65 11 80 14 98 16 160 22 36 3 67 8 69 10 2 2 67 2 145 0
122 -3 147 -6 184 -25z m437 -1018 c-38 -401 -269 -884 -697 -1460 -168 -226
-401 -441 -615 -567 -7 -4 3 30 23 76 20 46 38 92 41 102 4 11 21 50 40 88 18
38 33 70 33 73 0 2 49 104 109 227 219 445 500 930 689 1183 67 90 230 244
308 292 38 23 70 42 72 42 2 1 0 -25 -3 -56z"/>
</g>
</svg>
